<?xml version="1.0" encoding="UTF-8" standalone="no"?>
<!-- Created with Inkscape (http://www.inkscape.org/) -->

<svg
   version="1.1"
   id="svg1"
   width="528.29688"
   height="177.01172"
   viewBox="0 0 528.29688 177.01172"
   xmlns="http://www.w3.org/2000/svg"
   xmlns:svg="http://www.w3.org/2000/svg">
  <defs
     id="defs1" />
  <g
     id="g1"
     transform="translate(-273.51953,-451.46094)">
    <g
       id="g9">
      <g
         id="g4">
        <g
           id="g5" />
        <path
           id="path5"
           d="m 89.023368,-41.827343 c 0,4.781516 -0.757979,9.427194 -2.27122,13.931599 -1.515958,4.498972 -3.689375,8.62303 -6.520249,12.36674 -2.825442,3.738276 -6.248573,7.0038343 -10.269393,9.7912409 -4.020821,2.7901234 -8.541527,4.82226773 -13.562119,6.09643312 V 10.758468 H 37.28519 v -43.022779 h 19.115197 v 9.921646 c 3.586137,-1.752317 6.414296,-4.360416 8.487191,-7.824299 2.07018,-3.469316 3.107986,-7.357015 3.107986,-11.660379 0,-2.86076 -0.518903,-5.607415 -1.553993,-8.237248 -1.037806,-2.629834 -2.510296,-4.958107 -4.422902,-6.987534 -1.912607,-2.034861 -4.183827,-3.667641 -6.813661,-4.901054 -2.629834,-1.238848 -5.539495,-1.858271 -8.726267,-1.858271 -3.102552,0 -5.966028,0.597689 -8.595862,1.793068 -2.629834,1.195379 -4.901054,2.811858 -6.81366,4.846719 -1.912607,2.029427 -3.409547,4.379434 -4.488105,7.052736 -1.073125,2.667869 -1.608329,5.430824 -1.608329,8.291584 0,3.586137 0.695494,6.916898 2.08648,9.986848 1.39642,3.064518 3.371513,5.515045 5.92256,7.346148 V -0.71717112 C 28.596957,-2.2304123 24.630472,-4.341343 21.08237,-7.0526801 17.539701,-9.7613003 14.491485,-12.904604 11.943154,-16.485307 9.4002567,-20.071445 7.4278812,-24.016195 6.0314612,-28.31956 4.6404747,-32.622925 3.9449814,-37.124613 3.9449814,-41.827343 c 0,-5.808456 1.0921418,-11.345234 3.2818588,-16.604902 2.1951506,-5.259668 5.1998988,-9.85916 9.0196778,-13.801194 3.825213,-3.939317 8.326902,-7.06632 13.507784,-9.378292 5.178164,-2.309255 10.752978,-3.466599 16.724439,-3.466599 6.055682,0 11.673963,1.179078 16.854845,3.531801 5.178164,2.34729 9.677136,5.49331 13.496916,9.432628 3.825213,3.942034 6.81366,8.525226 8.965343,13.746859 2.151682,5.216199 3.227523,10.731243 3.227523,16.539699 z m 0,0"
           style="fill:#0ed822;fill-opacity:1;fill-rule:nonzero;stroke:none"
           aria-label="Q"
           transform="matrix(1.4378285,0,0,1.4378285,267.84732,573.78898)" />
        <g
           id="g6" />
        <path
           id="path6"
           d="m 7.1716432,-56.639176 h 4.5424408 v 34.296511 c 0,2.711337 0.456417,5.237934 1.369252,7.585224 0.918268,2.347289 2.173416,4.379434 3.76001,6.0964328 1.592028,1.7115654 3.504634,3.0645172 5.73782,4.0642887 2.230468,0.9943381 4.661978,1.4887903 7.291812,1.4887903 2.548331,0 4.939089,-0.4781516 7.172274,-1.4344549 2.230469,-0.9563032 4.162093,-2.3092549 5.792155,-4.0642887 1.630062,-1.7523172 2.901511,-3.7817442 3.814346,-6.0855662 0.918268,-2.309255 1.380119,-4.860302 1.380119,-7.650426 v -34.296511 h 4.542441 v 35.013739 c 0,3.189488 -0.559655,6.177936 -1.673531,8.965343 -1.116593,2.7819726 -2.689603,5.1917481 -4.716314,7.2266092 -2.029427,2.0294276 -4.439203,3.6404725 -7.226609,4.83585158 -2.790124,1.19537905 -5.819323,1.79306852 -9.084881,1.79306852 -3.268275,0 -6.297474,-0.59768947 -9.084881,-1.79306852 C 17.997974,-1.7930123 15.588198,-3.4040572 13.561488,-5.4334848 11.53206,-7.4683459 9.9590498,-9.8781214 8.8451738,-12.660094 7.7285811,-15.447501 7.1716432,-18.435949 7.1716432,-21.625437 Z M 119.01022,5.6305192e-5 h -4.54244 V -28.678174 c 0,-3.186772 -0.58139,-6.273023 -1.73873,-9.258754 -1.15191,-2.991164 -2.74666,-5.640015 -4.78152,-7.943837 -2.02943,-2.309255 -4.4555,-4.162092 -7.28094,-5.553079 -2.825446,-1.39642 -5.911698,-2.097347 -9.258759,-2.097347 -3.107986,0 -6.039381,0.679193 -8.79147,2.032145 -2.746655,1.355668 -5.15643,3.167754 -7.226609,5.433541 -2.064746,2.268503 -3.716542,4.939089 -4.95539,8.009039 -1.233414,3.064518 -1.847404,6.311058 -1.847404,9.736906 0,3.507351 0.61399,6.775626 1.847404,9.802108 1.238848,3.021049 2.912378,5.688918 5.020592,7.998173 2.108214,2.3119715 4.53429,4.1267742 7.280945,5.4444079 2.752089,1.3122002 5.642733,1.9669419 8.671932,1.9669419 3.825213,0 7.069037,-0.6954933 9.736909,-2.0864798 2.66515,-1.3964201 5.314,-3.4502986 7.94383,-6.161636 v 5.3792061 c -3.02105,2.5510475 -5.96602,4.3848677 -8.83493,5.49874359 -2.868914,1.11387592 -5.819327,1.67353061 -8.845809,1.67353061 -3.906716,0 -7.552622,-0.75797894 -10.943152,-2.2712201 -3.385096,-1.5132412 -6.311058,-3.5861372 -8.780602,-6.2159711 -2.464111,-2.6298339 -4.395735,-5.7323861 -5.792155,-9.3130891 -1.390987,-3.586137 -2.08648,-7.490137 -2.08648,-11.714715 0,-4.143075 0.695493,-8.02534 2.08648,-11.649512 1.39642,-3.621455 3.328044,-6.748458 5.792155,-9.378292 2.469544,-2.629834 5.379205,-4.700013 8.726267,-6.215971 3.347061,-1.513241 7.011985,-2.27122 10.997487,-2.27122 3.982786,0 7.666726,0.779713 11.051819,2.336422 3.38238,1.551276 6.28661,3.640473 8.7154,6.270307 2.43423,2.629834 4.34684,5.716085 5.73782,9.258754 1.39642,3.542669 2.09735,7.267361 2.09735,11.17136 z m 59.73907,0 h -4.54244 V -34.296455 c 0,-2.629834 -0.44012,-5.118396 -1.31492,-7.465686 -0.87752,-2.347289 -2.12995,-4.374 -3.76001,-6.085566 -1.63006,-1.716999 -3.56169,-3.091685 -5.79216,-4.129491 -2.23318,-1.03509 -4.66197,-1.553993 -7.29181,-1.553993 -2.71133,0 -5.18088,0.499886 -7.41135,1.499658 -2.23318,0.994338 -4.14579,2.366307 -5.73782,4.118624 -1.58659,1.755034 -2.82,3.803479 -3.6948,6.150768 -0.87752,2.34729 -1.31492,4.835852 -1.31492,7.465686 V 5.6305192e-5 h -4.54244 V -35.013683 c 0,-3.186771 0.55694,-6.153485 1.67353,-8.90014 1.11387,-2.743938 2.66515,-5.153714 4.65111,-7.22661 1.99139,-2.070179 4.38215,-3.705675 7.17227,-4.901054 2.78741,-1.195379 5.85736,-1.793068 9.20442,-1.793068 3.34706,0 6.4143,0.597689 9.20442,1.793068 2.78741,1.195379 5.17545,2.852609 7.16141,4.966257 1.99139,2.108214 3.54538,4.537007 4.66198,7.280945 1.11387,2.746655 1.67353,5.672617 1.67353,8.780602 z M 193.09112,-72.179104 h 4.54244 v 15.539928 h 20.0715 v 4.303364 h -20.0715 v 36.926346 c 0,3.341628 0.99162,6.0285136 2.97758,8.0633747 1.99139,2.0294276 4.54244,3.042783 7.65043,3.042783 h 9.44349 V 5.6305192e-5 h -8.48719 c -5.25967,0 -9.26419,-1.450755505192 -12.00813,-4.357700005192 -2.74665,-2.912378 -4.11862,-6.7538913 -4.11862,-11.5299743 z M 278.40315,5.6305192e-5 h -4.54244 V -28.678174 c 0,-3.186772 -0.58139,-6.273023 -1.73874,-9.258754 -1.15191,-2.991164 -2.74665,-5.640015 -4.78151,-7.943837 -2.02943,-2.309255 -4.45551,-4.162092 -7.28095,-5.553079 -2.82544,-1.39642 -5.91169,-2.097347 -9.25875,-2.097347 -3.10799,0 -6.03938,0.679193 -8.79147,2.032145 -2.74666,1.355668 -5.15643,3.167754 -7.22661,5.433541 -2.06475,2.268503 -3.71654,4.939089 -4.95539,8.009039 -1.23341,3.064518 -1.8474,6.311058 -1.8474,9.736906 0,3.507351 0.61399,6.775626 1.8474,9.802108 1.23885,3.021049 2.91238,5.688918 5.02059,7.998173 2.10822,2.3119715 4.53429,4.1267742 7.28095,5.4444079 2.75209,1.3122002 5.64273,1.9669419 8.67193,1.9669419 3.82521,0 7.06904,-0.6954933 9.73691,-2.0864798 2.66515,-1.3964201 5.314,-3.4502986 7.94383,-6.161636 v 5.3792061 c -3.02105,2.5510475 -5.96603,4.3848677 -8.83494,5.49874359 -2.86891,1.11387592 -5.81932,1.67353061 -8.8458,1.67353061 -3.90672,0 -7.55262,-0.75797894 -10.94315,-2.2712201 -3.3851,-1.5132412 -6.31106,-3.5861372 -8.7806,-6.2159711 -2.46412,-2.6298339 -4.39574,-5.7323861 -5.79216,-9.3130891 -1.39099,-3.586137 -2.08648,-7.490137 -2.08648,-11.714715 0,-4.143075 0.69549,-8.02534 2.08648,-11.649512 1.39642,-3.621455 3.32804,-6.748458 5.79216,-9.378292 2.46954,-2.629834 5.3792,-4.700013 8.72626,-6.215971 3.34706,-1.513241 7.01199,-2.27122 10.99749,-2.27122 3.98278,0 7.66673,0.779713 11.05182,2.336422 3.38238,1.551276 6.28661,3.640473 8.7154,6.270307 2.43423,2.629834 4.34683,5.716085 5.73782,9.258754 1.39642,3.542669 2.09735,7.267361 2.09735,11.17136 z m 0,0"
           style="fill:#000000;fill-opacity:1;fill-rule:nonzero;stroke:none"
           aria-label="uanta"
           transform="matrix(1.4378285,0,0,1.4378285,401.52044,573.78898)" />
      </g>
      <g
         id="g7">
        <g
           id="g8" />
        <path
           id="path8"
           d="m 12.605584,-18.65867 v 1.010639 H 6.346145 c -1.2823157,0 -2.2766538,0.247226 -2.9775806,0.738961 -0.7036435,0.486302 -1.0541069,1.333935 -1.0541069,2.542898 0,0.516186 0.086937,0.964453 0.2608099,1.347518 0.1793069,0.377631 0.4238162,0.711794 0.7280946,0.999771 0.3042783,0.282544 0.662892,0.532487 1.0758411,0.749829 0.4183827,0.211908 0.8693666,0.396648 1.3475182,0.554221 0.5487876,0.195608 1.1328933,0.374914 1.7496002,0.532487 0.6139902,0.16029 1.2171132,0.3368797 1.8039357,0.5324872 0.5868224,0.1956075 1.1437608,0.4238162 1.6735308,0.6846262 0.535204,0.2553764 1.002488,0.5732386 1.401853,0.9563032 0.396649,0.3857814 0.717228,0.8449157 0.956304,1.3801195 0.239075,0.5297702 0.358613,1.1682113 0.358613,1.9126064 0,0.7987306 -0.138555,1.4969406 -0.412949,2.0973469 -0.27711,0.5949727 -0.668325,1.0839914 -1.173645,1.4670561 -0.499885,0.3776311 -1.103008,0.66289201 -1.803935,0.85849949 C 9.5763852,-0.09769353 8.796672,1.1020981e-4 7.9436061,1.1020981e-4 H 1.1408126 V -1.0105284 h 6.6723885 c 1.4344548,0 2.5700649,-0.2934113 3.4122639,-0.8802337 0.847632,-0.5868224 1.271449,-1.4724896 1.271449,-2.6624351 0,-0.853066 -0.195608,-1.5458425 -0.586823,-2.0756127 C 11.52431,-7.1640137 11.029857,-7.5959803 10.421301,-7.9219927 9.8181777,-8.2534387 9.1498522,-8.522399 8.4108906,-8.7261568 7.671929,-8.9353481 6.9465513,-9.1445395 6.2374741,-9.3564476 5.5637151,-9.5520551 4.9171237,-9.7693967 4.3031335,-10.008473 c -0.6085566,-0.239075 -1.1491939,-0.554221 -1.6191952,-0.945436 -0.4727181,-0.391215 -0.8476324,-0.863933 -1.1301766,-1.423587 -0.2771106,-0.565089 -0.4129491,-1.263299 -0.4129491,-2.097347 0,-1.331218 0.4374,-2.360874 1.3149169,-3.086252 0.8829505,-0.730811 2.0457283,-1.097575 3.4883334,-1.097575 z m 37.534902,9.3239566 c 0,1.3203505 -0.249943,2.5619146 -0.749828,3.7274092 -0.494453,1.160061 -1.168212,2.1815667 -2.021278,3.0645172 -0.847632,0.8775169 -1.852837,1.57301012 -3.010181,2.08647976 -1.151911,0.51346963 -2.396192,0.77156283 -3.72741,0.77156283 -1.333934,0 -2.580932,-0.2580932 -3.738276,-0.77156283 C 35.741602,-0.96977688 34.741831,-1.6652701 33.894198,-2.542787 33.052,-3.4257375 32.386391,-4.4472432 31.894655,-5.6073042 c -0.486302,-1.1654946 -0.728094,-2.4070587 -0.728094,-3.7274092 0,-1.2958996 0.239076,-2.5265966 0.717227,-3.6948076 0.478152,-1.173645 1.143761,-2.197868 1.999543,-3.075385 0.853066,-0.88295 1.858271,-1.58116 3.010182,-2.097347 1.157344,-0.521619 2.404342,-0.782429 3.738276,-0.782429 1.369253,0 2.632551,0.266243 3.792612,0.793297 1.165495,0.52162 2.167983,1.22798 3.010182,2.119081 0.847632,0.885667 1.510524,1.909889 1.988676,3.075384 0.478151,1.168211 0.717227,2.388041 0.717227,3.6622066 z m -9.508697,8.63933035 c 1.13561,0 2.208735,-0.22277519 3.216657,-0.67375905 1.013355,-0.4564175 1.901739,-1.0758412 2.662435,-1.8582711 0.766129,-0.7824299 1.369252,-1.6952648 1.803935,-2.7385047 0.440117,-1.0486735 0.662893,-2.1734165 0.662893,-3.3687955 0,-1.1519106 -0.214625,-2.2440526 -0.641158,-3.2818586 -0.42925,-1.04324 -1.016073,-1.958792 -1.760468,-2.749372 -0.747112,-0.787864 -1.630062,-1.418154 -2.651568,-1.890872 -1.021505,-0.470002 -2.129948,-0.706361 -3.325327,-0.706361 -1.151911,0 -2.233185,0.228209 -3.23839,0.684626 -0.999772,0.450984 -1.874572,1.064975 -2.618967,1.847404 -0.747112,0.78243 -1.333935,1.700699 -1.760468,2.749372 -0.429249,1.04324 -0.641157,2.159833 -0.641157,3.3470616 0,1.160061 0.206474,2.2657866 0.619423,3.3144601 0.418383,1.0432399 0.999772,1.9642251 1.738733,2.7602388 0.738962,0.7905803 1.611045,1.4181543 2.618967,1.8800053 1.013356,0.45641742 2.119081,0.68462615 3.31446,0.68462615 z M 68.19886,-18.65867 h 1.11931 v 13.1926379 c 0,0.6248572 0.0978,1.2116796 0.293411,1.7604673 0.195607,0.5515044 0.467284,1.0323728 0.815031,1.4453219 0.347747,0.4075156 0.763413,0.7253777 1.249714,0.9563032 0.491736,0.2336423 1.032373,0.34774667 1.619196,0.34774667 H 76.91426 V 1.1020981e-4 h -3.944751 c -0.638441,0 -1.246997,-0.13312175981 -1.82567,-0.40208203981 C 70.562451,-0.66821535 70.057131,-1.0376961 69.622448,-1.5104142 69.187765,-1.9804155 68.840018,-2.542787 68.579208,-3.194812 68.323832,-3.8522704 68.19886,-4.5857985 68.19886,-5.3899626 Z m 25.836488,0 h 1.11931 v 13.0078975 c 0,0.7117938 0.119538,1.3692523 0.358613,1.9778089 0.239076,0.6031231 0.581389,1.1274598 1.032373,1.5757269 0.456418,0.4428336 1.013356,0.7878635 1.673531,1.0323729 0.657458,0.24722607 1.40457,0.36948075 2.238615,0.36948075 0.81775,0 1.55671,-0.12225468 2.21689,-0.36948075 0.65746,-0.2445094 1.21711,-0.5868225 1.67353,-1.0215058 0.46185,-0.4401168 0.81503,-0.9617368 1.05411,-1.5648598 0.23907,-0.6004063 0.35861,-1.2660151 0.35861,-1.9995431 V -18.65867 h 1.11931 v 12.6601508 c 0,0.994338 -0.15214,1.8772885 -0.45642,2.6515681 -0.29884,0.7769964 -0.72809,1.4398884 -1.29318,1.988676 -0.55966,0.55150446 -1.23341,0.96717035 -2.02128,1.24971449 -0.79058,0.28254414 -1.67353,0.4238162 -2.65157,0.4238162 -0.978034,0 -1.863701,-0.14670561 -2.651564,-0.43468328 C 97.015645,-0.41555568 96.33917,-0.83937189 95.774081,-1.3908763 95.214427,-1.939664 94.785177,-2.602556 94.480899,-3.3795524 94.182054,-4.1619823 94.035348,-5.0422159 94.035348,-6.0202533 Z m 41.827402,0 v 0.956303 h -5.30314 V 1.1020981e-4 H 129.4403 V -17.702367 h -5.30313 v -0.956303 z m 17.92253,0 h 1.11931 V 1.1020981e-4 h -1.11931 z m 38.83624,9.3239566 c 0,1.3203505 -0.24994,2.5619146 -0.74983,3.7274092 -0.49445,1.160061 -1.16821,2.1815667 -2.02128,3.0645172 -0.84763,0.8775169 -1.85284,1.57301012 -3.01018,2.08647976 -1.15191,0.51346963 -2.39619,0.77156283 -3.72741,0.77156283 -1.33393,0 -2.58093,-0.2580932 -3.73828,-0.77156283 -1.15191,-0.51346964 -2.15168,-1.20896286 -2.99931,-2.08647976 -0.8422,-0.8829505 -1.50781,-1.9044562 -1.99954,-3.0645172 -0.4863,-1.1654946 -0.7281,-2.4070587 -0.7281,-3.7274092 0,-1.2958996 0.23908,-2.5265966 0.71723,-3.6948076 0.47815,-1.173645 1.14376,-2.197868 1.99954,-3.075385 0.85307,-0.88295 1.85827,-1.58116 3.01018,-2.097347 1.15735,-0.521619 2.40435,-0.782429 3.73828,-0.782429 1.36925,0 2.63255,0.266243 3.79261,0.793297 1.1655,0.52162 2.16799,1.22798 3.01018,2.119081 0.84764,0.885667 1.51053,1.909889 1.98868,3.075384 0.47815,1.168211 0.71723,2.388041 0.71723,3.6622066 z m -9.5087,8.63933035 c 1.13561,0 2.20874,-0.22277519 3.21666,-0.67375905 1.01335,-0.4564175 1.90174,-1.0758412 2.66243,-1.8582711 0.76613,-0.7824299 1.36925,-1.6952648 1.80394,-2.7385047 0.44012,-1.0486735 0.66289,-2.1734165 0.66289,-3.3687955 0,-1.1519106 -0.21462,-2.2440526 -0.64116,-3.2818586 -0.42925,-1.04324 -1.01607,-1.958792 -1.76046,-2.749372 -0.74712,-0.787864 -1.63007,-1.418154 -2.65157,-1.890872 -1.02151,-0.470002 -2.12995,-0.706361 -3.32533,-0.706361 -1.15191,0 -2.23319,0.228209 -3.23839,0.684626 -0.99977,0.450984 -1.87457,1.064975 -2.61897,1.847404 -0.74711,0.78243 -1.33393,1.700699 -1.76046,2.749372 -0.42925,1.04324 -0.64116,2.159833 -0.64116,3.3470616 0,1.160061 0.20647,2.2657866 0.61942,3.3144601 0.41838,1.0432399 0.99977,1.9642251 1.73873,2.7602388 0.73897,0.7905803 1.61105,1.4181543 2.61897,1.8800053 1.01336,0.45641742 2.11908,0.68462615 3.31446,0.68462615 z m 38.04294,-1.38011945 c 0.0489,0.1249715 0.10867,0.2580932 0.17387,0.402082 0.0652,0.1385553 0.13041,0.2771106 0.19561,0.4129492 0.0706,0.130405 0.15214,0.2390758 0.23908,0.32601244 0.0924,0.0869367 0.18474,0.13040499 0.27167,0.13040499 0.10867,0 0.18474,-0.0434683 0.22821,-0.13040499 0.0435,-0.0869366 0.0652,-0.19017394 0.0652,-0.31514534 V -18.984682 h 1.11931 v 18.02848897 c 0,0.3694808 -0.10867,0.6737591 -0.32601,0.91283491 -0.21191,0.23907581 -0.55422,0.35861371 -1.03237,0.35861371 -0.26896,0 -0.49989,-0.0434683 -0.6955,-0.13040498 -0.1956,-0.08693666 -0.36404,-0.19560748 -0.49988,-0.32601247 -0.13041,-0.13583853 -0.23908,-0.28254414 -0.32601,-0.43468329 -0.0869,-0.15213915 -0.16029,-0.29612799 -0.21734,-0.43468325 l -7.24835,-15.6268646 c -0.19561,-0.426533 -0.36405,-0.752545 -0.49988,-0.978037 -0.13041,-0.230926 -0.2581,-0.347747 -0.38035,-0.347747 -0.21191,0 -0.31515,0.141272 -0.31515,0.423817 V 1.1020981e-4 h -1.11931 V -17.53936 c 0,-0.157573 0.0217,-0.320579 0.0652,-0.489019 0.0435,-0.173874 0.11953,-0.328729 0.2282,-0.467285 0.10867,-0.143989 0.24995,-0.26081 0.42382,-0.347746 0.17931,-0.09237 0.40208,-0.141272 0.66289,-0.141272 0.39122,0 0.70093,0.07607 0.93457,0.228208 0.23093,0.152139 0.45642,0.450984 0.67376,0.891101 z M 253.33319,-18.65867 v 1.010639 h -6.25944 c -1.28232,0 -2.27665,0.247226 -2.97758,0.738961 -0.70364,0.486302 -1.05411,1.333935 -1.05411,2.542898 0,0.516186 0.0869,0.964453 0.26081,1.347518 0.17931,0.377631 0.42382,0.711794 0.7281,0.999771 0.30428,0.282544 0.66289,0.532487 1.07584,0.749829 0.41838,0.211908 0.86936,0.396648 1.34752,0.554221 0.54878,0.195608 1.13289,0.374914 1.7496,0.532487 0.61399,0.16029 1.21711,0.3368797 1.80393,0.5324872 0.58682,0.1956075 1.14376,0.4238162 1.67353,0.6846262 0.53521,0.2553764 1.00249,0.5732386 1.40186,0.9563032 0.39665,0.3857814 0.71722,0.8449157 0.9563,1.3801195 0.23908,0.5297702 0.35861,1.1682113 0.35861,1.9126064 0,0.7987306 -0.13855,1.4969406 -0.41295,2.0973469 -0.27711,0.5949727 -0.66832,1.0839914 -1.17364,1.4670561 -0.49989,0.3776311 -1.10301,0.66289201 -1.80394,0.85849949 -0.70364,0.19560748 -1.48335,0.29341121981 -2.33642,0.29341121981 h -6.80279 V -1.0105284 h 6.67239 c 1.43445,0 2.57006,-0.2934113 3.41226,-0.8802337 0.84763,-0.5868224 1.27145,-1.4724896 1.27145,-2.6624351 0,-0.853066 -0.19561,-1.5458425 -0.58682,-2.0756127 -0.38579,-0.5352038 -0.88024,-0.9671704 -1.48879,-1.2931828 -0.60313,-0.331446 -1.27145,-0.6004063 -2.01041,-0.8041641 -0.73897,-0.2091913 -1.46434,-0.4183827 -2.17342,-0.6302908 -0.67376,-0.1956075 -1.32035,-0.4129491 -1.93434,-0.6520254 -0.60856,-0.239075 -1.1492,-0.554221 -1.6192,-0.945436 -0.47271,-0.391215 -0.84763,-0.863933 -1.13017,-1.423587 -0.27711,-0.565089 -0.41295,-1.263299 -0.41295,-2.097347 0,-1.331218 0.4374,-2.360874 1.31491,-3.086252 0.88296,-0.730811 2.04573,-1.097575 3.48834,-1.097575 z m 0,0"
           style="fill:#000000;fill-opacity:1;fill-rule:nonzero;stroke:none"
           aria-label="SOLUTIONS"
           transform="matrix(1.4378285,0,0,1.4378285,425.01986,628.01937)" />
      </g>
    </g>
  </g>
</svg>
